<svg xmlns="http://www.w3.org/2000/svg" height="40" viewBox="0 -960 960 960" width="40"><path d="M766.667-90.666 645-212l-88 88-38-38q-19-19-19-47t19-47l189-189q19-19 47-19t47 19l38 38-88 88 120.667 121.667q10 10 10 23.333 0 13.333-10 23.333l-59.334 60q-10 10-23.333 10-13.333 0-23.333-10ZM880-724 426.667-270.667 441-256q19 19 19 47t-19 47l-38 38-88-88L193.333-90.666q-10 10-23.333 10-13.333 0-23.333-10l-60-60.001q-10-10-10-23.333 0-13.333 10-23.333L208-319l-88-88 38-38q19-19 47-19t47 19l14.667 14.333L720-884h160v160ZM324.666-573 358-606l33-33.334L358-606l-33.334 33ZM278-526 80-724v-160h160l198 198-47 46.666-178.667-178h-65.667v65.667l178 178.667L278-526Zm100.667 207.667 434.667-433.334v-65.667h-65.667L313-384l65.667 65.667Zm0 0-32.667-33L313-384l33 32.667 32.667 33Z"/></svg>