<?xml version="1.0" standalone="no"?>
<!DOCTYPE svg PUBLIC "-//W3C//DTD SVG 20010904//EN"
 "http://www.w3.org/TR/2001/REC-SVG-20010904/DTD/svg10.dtd">
<svg version="1.0" xmlns="http://www.w3.org/2000/svg"
 width="251.000000pt" height="260.000000pt" viewBox="0 0 251.000000 260.000000"
 preserveAspectRatio="xMidYMid meet">

<g transform="translate(0.000000,260.000000) scale(0.100000,-0.100000)"
fill="#000000" stroke="none">
<path d="M0 1300 l0 -1300 923 0 c705 0 926 3 935 12 9 9 12 9 12 0 0 -9 78
-12 320 -12 l320 0 0 1300 0 1300 -1255 0 -1255 0 0 -1300z m1525 -222 c-6
-24 -16 -54 -22 -68 -13 -30 -117 -141 -155 -165 -25 -15 -27 -15 -33 4 -3 12
-10 21 -15 21 -13 0 -28 -32 -23 -47 6 -15 -36 -28 -49 -15 -17 17 10 71 39
78 14 4 30 20 38 38 l14 31 -5 -37 c-4 -25 -2 -38 5 -38 12 0 51 36 51 48 1 4
21 29 45 56 25 28 45 54 45 60 0 10 59 72 71 75 3 0 1 -18 -6 -41z m-775 -249
c0 -6 11 -9 25 -7 13 2 24 -1 24 -7 0 -10 -11 -10 -66 1 -18 3 -30 10 -27 15
7 13 44 11 44 -2z m20 -274 c11 -24 20 -46 20 -49 0 -3 14 -35 30 -70 26 -55
29 -68 19 -89 -11 -25 -39 -27 -39 -3 0 6 -13 19 -29 29 -47 28 -91 84 -91
117 0 17 -5 39 -12 50 -7 10 -8 23 -4 27 5 4 11 2 13 -4 6 -18 25 -16 21 1 -3
16 32 47 44 40 5 -3 17 -25 28 -49z m110 -236 c0 -6 -4 -7 -10 -4 -5 3 -10 11
-10 16 0 6 5 7 10 4 6 -3 10 -11 10 -16z"/>
</g>
</svg>
