<svg xmlns="http://www.w3.org/2000/svg" height="40" viewBox="0 -960 960 960" width="40"><path d="M480-120q-150 0-255-105T120-480q0-150 105-255t255-105q10 0 20.5.667 10.5.666 24.166 2-37.666 31-59.166 77.833T444-660q0 90 63 153t153 63q53 0 99.667-20.5 46.666-20.5 77.666-56.166 1.334 12.333 2 21.833.667 9.5.667 18.833 0 150-105 255T480-120Zm0-66.666q102 0 179.334-61.167t101.333-147.834q-23.333 9-49.111 13.667-25.778 4.666-51.556 4.666-117.459 0-200.063-82.603Q377.334-542.541 377.334-660q0-22.667 4.333-47.667t14.667-55q-91.334 28.666-150.501 107Q186.666-577.334 186.666-480q0 122 85.667 207.667T480-186.666Zm-6-288.001Z"/></svg>