<svg xmlns="http://www.w3.org/2000/svg" height="40" viewBox="0 -960 960 960" width="40"><path d="M280-408q-29.667 0-50.833-21.167Q208-450.333 208-480q0-29.667 21.167-50.833Q250.333-552 280-552q29.667 0 50.833 21.167Q352-509.667 352-480q0 29.667-21.167 50.833Q309.667-408 280-408Zm0 168q-100 0-170-70T40-480q0-100 70-170t170-70q70.333 0 124.5 33.667 54.167 33.666 85.5 97.667h354.667L960-473.333 788.667-311.334 703.333-374 618-311.334l-78.333-60H490q-27.333 58-81.166 94.667Q355-240 280-240Zm0-66.666q57.333 0 104.167-37Q431-380.666 445-438h117.667L618-394.333l86-62.334L782.334-397l81.667-77.667L816.667-522H445q-12.666-54.667-58.833-93Q340-653.334 280-653.334q-72 0-122.667 50.667T106.666-480q0 72 50.667 122.667T280-306.666Z"/></svg>