<svg xmlns="http://www.w3.org/2000/svg" height="40" viewBox="0 -960 960 960" width="40"><path d="M480-346.666q55.333 0 94.334-39 39-39.001 39-94.334 0-55.333-39-94.334-39.001-39-94.334-39-55.333 0-94.334 39-39 39.001-39 94.334 0 55.333 39 94.334 39.001 39 94.334 39ZM480-280q-83 0-141.5-58.5T280-480q0-83 58.5-141.5T480-680q83 0 141.5 58.5T680-480q0 83-58.5 141.5T480-280ZM200-446.667H40v-66.666h160v66.666Zm720 0H760v-66.666h160v66.666ZM446.667-760v-160h66.666v160h-66.666Zm0 720v-160h66.666v160h-66.666ZM260-655.333l-100.333-97 47.666-49 96 100-43.333 46Zm493.333 496-97.666-100.334 45-45.666 99.666 97.666-47 48.334Zm-98.666-541.334 97.666-99.666 49 47L702-656l-47.333-44.667ZM159.333-207.333 259-305l46.333 45.667-97.666 99.666-48.334-47.666ZM480-480Z"/></svg>