<svg xmlns="http://www.w3.org/2000/svg" height="40" viewBox="0 -960 960 960" width="40"><path d="M400-483.333q-66 0-109.667-43.667-43.666-43.667-43.666-109.667t43.666-109.666Q334-790 400-790t109.667 43.667q43.666 43.666 43.666 109.666T509.667-527Q466-483.333 400-483.333ZM80-162.667v-99.999Q80-297 97.333-325.333q17.334-28.333 49.334-43.333Q211.667-398.667 274-414q62.334-15.333 126-15.333h12.333q6.334 0 11.667.667-6.667 15.333-10.5 30.833-3.833 15.5-6.167 35.166H400q-62.333 0-118.166 14.333Q226-334 174.667-308.667q-13.667 7-20.834 19.667-7.167 12.667-7.167 26.334v33.333H410q5.333 19 13.333 35.5T442-162.667H80ZM658.001-120l-10.667-64q-15.334-5-30.5-13.167Q601.667-205.334 590-216l-56 14-29.999-50.667 46.666-42.666q-2-10.667-2-25.334 0-14.666 2-25.333l-46.666-42.667L534-439.333l56 14q11.667-10.667 26.834-18.834 15.166-8.166 30.5-13.166l10.667-64h62.666l10.666 64q15.334 5 30.501 13.333 15.166 8.334 26.833 19.334l56-14.667 30 51.333L828-345.333q2 10 2 25t-2 25l46.667 42.666-30 50.667-56-14Q777-205.334 761.834-197.167 746.667-189 731.333-184l-10.666 64h-62.666Zm31.333-120.667q35 0 57.5-22.5t22.5-57.5q0-35-22.5-57.5t-57.5-22.5q-35 0-57.5 22.5t-22.5 57.5q0 35 22.5 57.5t57.5 22.5ZM400-550q37 0 61.833-24.833 24.834-24.833 24.834-61.834 0-37-24.834-61.833Q437-723.333 400-723.333T338.167-698.5q-24.834 24.833-24.834 61.833 0 37.001 24.834 61.834Q363-550 400-550Zm0-86.667Zm10 407.334Z"/></svg>