<svg xmlns="http://www.w3.org/2000/svg" height="40" viewBox="0 -960 960 960" width="40"><path d="M80-160v-640h800v640H80Zm66.666-66.666h666.668v-506.668H146.666v506.668Zm0 0v-506.668 506.668ZM322.667-276h66.666v-43.333h45.334q16.333 0 26.499-11.834 10.167-11.833 10.167-27.5v-116.496q0-16.504-10.167-28.004-10.166-11.5-26.499-11.5H304.666V-574h166.667v-66.667h-82V-684h-66.666v43.333h-45.334q-16.333 0-27.833 11.834Q238-617 238-600.589v115.844q0 16.412 11.5 26.578Q261-448 277.333-448h127.334v62H238v66.667h84.667V-276Zm324-33.333L713.333-376H580.001l66.666 66.667ZM580.001-574h133.332l-66.666-66.667L580.001-574Z"/></svg>