<svg xmlns="http://www.w3.org/2000/svg" height="40" viewBox="0 -960 960 960" width="40"><path d="M546.666-426.666q-50 0-85-35t-35-85q0-50 35-85t85-35q50 0 85 35t35 85q0 50-35 85t-85 35ZM239.999-293.333q-27.5 0-47.083-19.583t-19.583-47.083v-373.335q0-27.5 19.583-47.083T239.999-800h613.335q27.5 0 47.083 19.583T920-733.334v373.335q0 27.5-19.583 47.083t-47.083 19.583H239.999Zm93.334-66.666H760q0-39 27.167-66.167t66.167-27.167V-640q-39 0-66.167-27.167T760-733.334H333.333q0 39-27.167 66.167T239.999-640v186.667q39 0 66.167 27.167t27.167 66.167ZM800-160H106.666q-27.5 0-47.083-19.583T40-226.666V-680h66.666v453.334H800V-160ZM239.999-359.999v-373.335 373.335Z"/></svg>