<svg xmlns="http://www.w3.org/2000/svg" height="40" viewBox="0 -960 960 960" width="40"><path d="M480-80q-66 0-127.167-20.167-61.166-20.166-112.166-58.5l48.666-48.666q43.333 29.667 92 45.167t98.667 15.5q139.667 0 236.5-96.834 96.834-96.833 96.834-236.5T716.5-716.5q-96.833-96.834-236.5-96.834T243.5-716.5q-96.834 96.833-96.834 236.5H80q0-83 31.5-155.667 31.5-72.666 85.833-127Q251.667-817 324.667-848.5T480-880q83 0 155.5 31.5t127 86q54.5 54.5 86 127T880-480q0 82-31.5 155t-86 127.5q-54.5 54.5-127 86T480-80ZM151-254.334 314.666-418l124.667 107.333 213.334-213.334v122.668h66.666v-233.334H486V-568h122.667l-172 172.001L312-503.333 118.333-309.667q8.334 17 15.5 29.5Q141-267.667 151-254.334ZM480-480Z"/></svg>