<svg xmlns="http://www.w3.org/2000/svg" height="40" viewBox="0 -960 960 960" width="40"><path d="M186.666-120q-27 0-46.833-19.833T120-186.666v-586.668q0-27 19.833-46.833T186.666-840h389.001l-66.666 66.666H186.666v586.668h586.668v-324.668L840-578.001v391.335q0 27-19.833 46.833T773.334-120H186.666ZM480-480ZM360-360v-170l377-377q10-10 22.333-14.667 12.334-4.666 24.667-4.666 12.667 0 25.045 5 12.378 4.999 22.621 14.999l74.001 75.001q9.406 9.972 14.536 22.021 5.13 12.049 5.13 24.514t-4.833 24.965q-4.833 12.499-14.833 22.499L530-360H360Zm499.001-424.667-74.668-74.667 74.668 74.667ZM426.666-426.666H502l246.001-246.001L710-710l-38.333-37.334L426.666-503v76.334ZM710-710l-38.333-37.334L710-710l38.001 37.333L710-710Z"/></svg>