<svg xmlns="http://www.w3.org/2000/svg" height="40" viewBox="0 -960 960 960" width="40"><path d="m345.333-60-76-129.333-148.666-31.334 16-147.333L40-480l96.667-111.333-16-147.334L269.333-770l76-130L480-839.333 614.667-900l76.666 130 148 31.333-16 147.334L920-480l-96.667 112 16 147.333-148 31.334L614.667-60 480-120.667 345.333-60Zm29.334-86.666L480-191.333l108 44.667 63.334-98.667L766-274l-11.333-116.667L833.334-480l-78.667-91.333L766-688l-114.666-26.667L586-813.334l-106 44.667-108-44.667-63.334 98.667L194-688l11.333 116.667L126.666-480l78.667 89.333L194-272l114.666 26.667 66.001 98.667ZM480-480Zm-42.667 136L664-569.333 615.334-616 437.333-439.333l-92-94L296-484.667 437.333-344Z"/></svg>